<?xml version="1.0" encoding="utf-8"?>
<!-- Generator: Adobe Illustrator 25.2.0, SVG Export Plug-In . SVG Version: 6.00 Build 0)  -->
<svg version="1.1" id="Capa_1" xmlns="http://www.w3.org/2000/svg" xmlns:xlink="http://www.w3.org/1999/xlink" x="0px" y="0px"
	 viewBox="0 0 512 512" style="enable-background:new 0 0 512 512;" xml:space="preserve">
<style type="text/css">
	.st0{fill:#EE8031;}
	.st1{fill:#FFFFFF;}
</style>
<g>
	<path class="st0" d="M502,256c0-135.9-110.1-246-246-246C120.1,10,10,120.1,10,256c0,122.8,90,224.6,207.6,243V327.1h-62.5V256
		h62.5v-54.2c0-61.7,36.7-95.7,92.9-95.7c26.9,0,55.1,4.8,55.1,4.8v60.5h-31c-30.6,0-40.1,19-40.1,38.4V256h68.2l-10.9,71.1h-57.3
		V499C412,480.6,502,378.8,502,256z"/>
	<path class="st1" d="M351.8,327.1l10.9-71.1h-68.2v-46.1c0-19.5,9.5-38.4,40.1-38.4h31v-60.5c0,0-28.2-4.8-55.1-4.8
		c-56.2,0-92.9,34.1-92.9,95.7V256h-62.5v71.1h62.5V499c12.5,2,25.4,3,38.4,3c13.1,0,25.9-1,38.4-3V327.1H351.8z"/>
</g>
</svg>
