<?xml version="1.0" encoding="utf-8"?>
<!-- Generator: Adobe Illustrator 25.2.0, SVG Export Plug-In . SVG Version: 6.00 Build 0)  -->
<svg version="1.1" id="Capa_1" xmlns="http://www.w3.org/2000/svg" xmlns:xlink="http://www.w3.org/1999/xlink" x="0px" y="0px"
	 viewBox="0 0 512 512" style="enable-background:new 0 0 512 512;" xml:space="preserve">
<style type="text/css">
	.st0{fill:#EF8031;}
</style>
<path class="st0" d="M277.3,128c0,11.8-9.6,21.3-21.3,21.3s-21.3-9.6-21.3-21.3s9.6-21.3,21.3-21.3S277.3,116.2,277.3,128z"/>
<path class="st0" d="M256,405.3c-8.8,0-16-7.2-16-16V224h-21.3c-8.8,0-16-7.2-16-16s7.2-16,16-16H256c8.8,0,16,7.2,16,16v181.3
	C272,398.2,264.8,405.3,256,405.3z"/>
<path class="st0" d="M256,512C114.8,512,0,397.2,0,256S114.8,0,256,0s256,114.8,256,256S397.2,512,256,512z M256,32
	C132.5,32,32,132.5,32,256s100.5,224,224,224s224-100.5,224-224S379.5,32,256,32z"/>
<path class="st0" d="M304,405.3h-96c-8.8,0-16-7.2-16-16s7.2-16,16-16h96c8.8,0,16,7.2,16,16S312.8,405.3,304,405.3z"/>
</svg>
