<?xml version="1.0" encoding="utf-8"?>
<!-- Generator: Adobe Illustrator 25.2.0, SVG Export Plug-In . SVG Version: 6.00 Build 0)  -->
<svg version="1.1" id="Capa_1" xmlns="http://www.w3.org/2000/svg" xmlns:xlink="http://www.w3.org/1999/xlink" x="0px" y="0px"
	 viewBox="0 0 512 512" style="enable-background:new 0 0 512 512;" xml:space="preserve">
<style type="text/css">
	.st0{fill:#EE8031;}
	.st1{fill:#FFFFFF;}
</style>
<g>
	<circle class="st0" cx="256" cy="256" r="246.5"/>
	<g>
		<g>
			<path class="st1" d="M332.5,162.7c-9.4,0-16.9,7.6-16.9,16.9c0,9.4,7.6,16.9,16.9,16.9c9.4,0,16.9-7.6,16.9-16.9
				C349.5,170.3,341.9,162.7,332.5,162.7z"/>
			<path class="st1" d="M257.2,184.5c-39.2,0-71.2,31.9-71.2,71.2c0,39.2,31.9,71.2,71.2,71.2c39.2,0,71.2-31.9,71.2-71.2
				C328.4,216.4,296.4,184.5,257.2,184.5z M257.2,301.2c-25.1,0-45.6-20.5-45.6-45.6s20.5-45.6,45.6-45.6
				c25.1,0,45.6,20.5,45.6,45.6S282.3,301.2,257.2,301.2z"/>
			<path class="st1" d="M313.7,400.2H198.3c-47.9,0-86.8-38.9-86.8-86.8V198c0-47.9,38.9-86.8,86.8-86.8h115.4
				c47.9,0,86.8,38.9,86.8,86.8v115.4C400.5,361.2,361.6,400.2,313.7,400.2z M198.3,138.3c-32.9,0-59.6,26.7-59.6,59.6v115.4
				c0,32.9,26.7,59.6,59.6,59.6h115.4c32.9,0,59.6-26.7,59.6-59.6V198c0-32.9-26.7-59.6-59.6-59.6H198.3z"/>
		</g>
	</g>
</g>
</svg>
