<?xml version="1.0" encoding="utf-8"?>
<!-- Generator: Adobe Illustrator 25.2.3, SVG Export Plug-In . SVG Version: 6.00 Build 0)  -->
<svg version="1.1" id="Capa_1" xmlns="http://www.w3.org/2000/svg" xmlns:xlink="http://www.w3.org/1999/xlink" x="0px" y="0px"
	 viewBox="0 0 512 512" style="enable-background:new 0 0 512 512;" xml:space="preserve">
<style type="text/css">
	.st0{fill:#EE8031;}
	.st1{fill:#FFFFFF;}
</style>
<circle class="st0" cx="259.1" cy="255.7" r="246.7"/>
<path class="st1" d="M287.9,297.7c-6-6.3-16.5-10.4-28.9-10.4s-22.9,4-28.9,10.4c-3.1,3.1-4.9,7.1-5.3,11.5
	c-1,9.3-0.4,17.3,0.6,30.1c1,12.2,3,28.5,5.6,45.1c1.8,11.8,3.3,18.2,4.7,22.7c2.2,7.4,10.4,13.9,23.3,13.9c12.8,0,21-6.5,23.3-13.9
	c1.4-4.6,2.8-10.9,4.7-22.7c2.6-16.6,4.6-32.9,5.6-45.1c1.1-12.8,1.7-20.8,0.6-30.1C292.9,304.9,291,300.8,287.9,297.7z
	 M226.5,241.6c0,18,14.6,32.6,32.6,32.6s32.6-14.6,32.6-32.6S277.1,209,259.1,209S226.5,223.6,226.5,241.6z M258.7,112.9
	C182.4,113.1,119.9,175,119,251.2c-0.8,61.8,38.7,114.6,93.7,134c1,0.3,2.1-0.2,2.4-1.2c0.1-0.3,0.1-0.6,0.1-0.9
	c-0.7-4.8-1.4-9.6-2-14.4c-0.2-1.7-1.3-3.1-2.8-3.8c-44.9-19.6-73.8-64.2-73.4-113.2c0.6-66.3,54.8-120.4,121.2-121
	c67.8-0.6,123.2,54.5,123.2,122.2c-0.1,48.6-28.9,92.6-73.4,112c-1.5,0.7-2.6,2.1-2.8,3.8c-0.6,4.8-1.3,9.6-2,14.3
	c-0.2,1,0.5,2,1.6,2.1c0.3,0.1,0.6,0,0.9-0.1c54.3-19,93.5-71,93.5-132C399.2,175.6,336.1,112.7,258.7,112.9z M256.1,177.2
	c41.9-1.6,77.2,31.1,78.9,73c0,0.9,0.1,1.9,0.1,2.8c0,21-8.7,41-24,55.3c-1.2,1.2-1.9,2.8-1.8,4.6c0.3,5.2,0.2,10.3-0.2,16
	c-0.1,1,0.7,1.9,1.7,1.9c0.4,0,0.8-0.1,1.1-0.3c25.7-17.5,41-46.5,41-77.5c-0.1-51.9-42.1-93.9-94-93.8c-1.2,0-2.4,0-3.5,0.1
	c-49.7,1.9-89.5,42.9-90.1,92.6c-0.4,31.5,15,61,41,78.8c0.8,0.6,2,0.4,2.5-0.5c0.2-0.3,0.3-0.8,0.3-1.2c-0.4-5.3-0.4-10.7-0.2-16
	c0.1-1.7-0.6-3.4-1.8-4.6c-15.8-14.8-24.6-35.7-24-57.4C184.4,211.1,216.2,178.9,256.1,177.2z"/>
</svg>
