<?xml version="1.0" encoding="utf-8"?>
<!-- Generator: Adobe Illustrator 25.2.3, SVG Export Plug-In . SVG Version: 6.00 Build 0)  -->
<svg version="1.1" id="Capa_1" xmlns="http://www.w3.org/2000/svg" xmlns:xlink="http://www.w3.org/1999/xlink" x="0px" y="0px"
	 viewBox="0 0 78.2 14.5" style="enable-background:new 0 0 78.2 14.5;" xml:space="preserve">
<style type="text/css">
	.st0{fill:#F08032;}
	.st1{fill:none;}
	.st2{fill:#FFFFFF;}
</style>
<g>
	<g>
		<path class="st0" d="M22.8,11.3h-8.9c-0.2,0-0.4,0.2-0.4,0.4v1.8c0,0.2,0.2,0.4,0.4,0.4h8.9c0.2,0,0.4-0.2,0.4-0.4v-1.8
			C23.2,11.5,23,11.3,22.8,11.3z"/>
		<path class="st0" d="M22.8,5.9h-8.9c-0.2,0-0.4,0.2-0.4,0.4v1.8c0,0.2,0.2,0.4,0.4,0.4h8.9c0.2,0,0.4-0.2,0.4-0.4V6.4
			C23.2,6.1,23,5.9,22.8,5.9z"/>
		<path class="st0" d="M22.8,0.5h-8.9c-0.2,0-0.4,0.2-0.4,0.4v1.8c0,0.2,0.2,0.4,0.4,0.4h8.9c0.2,0,0.4-0.2,0.4-0.4V1
			C23.2,0.7,23,0.5,22.8,0.5z"/>
		<path class="st0" d="M11,4.8c0-2.6-1.9-4.3-4.6-4.3l-4.9,0C1.3,0.5,1.1,0.7,1.1,1v1.8c0,0.2,0.2,0.4,0.4,0.4l5.1,0
			c1.1,0,1.7,0.5,1.7,1.4c0,0.9-0.6,1.3-1.7,1.3l-5.1,0c-0.2,0-0.4,0.2-0.4,0.4v7.1c0,0.2,0.2,0.4,0.4,0.4h1.8
			c0.2,0,0.4-0.2,0.4-0.4V8.6l1.7,0l2.7,5.1C8.2,13.9,8.4,14,8.5,14h2c0.2,0,0.3-0.1,0.4-0.2c0.1-0.1,0.1-0.3,0-0.4L8.4,8.4
			C10.2,7.8,11,6.7,11,4.8z"/>
	</g>
	<g>
		<path class="st1" d="M43.9,8.6C44,8.6,44,8.6,43.9,8.6l3.2,0c0,0,0,0,0.1,0c0,0,0,0,0-0.1l-1.6-4.9c0,0,0,0-0.1,0V3.3l0,0v0.3
			c0,0-0.1,0-0.1,0L43.9,8.6C43.9,8.6,43.9,8.6,43.9,8.6z"/>
		<path class="st2" d="M36.8,0.9h-2.2c-0.1,0-0.3,0.1-0.3,0.3v8c0,0,0,0.1-0.1,0.1c0,0,0,0-0.1,0l-5.5-8.2c0-0.1-0.1-0.1-0.2-0.1
			h-2.3c-0.1,0-0.3,0.1-0.3,0.3v12.2c0,0.1,0.1,0.3,0.3,0.3h2.2c0.1,0,0.3-0.1,0.3-0.3V5.2c0,0,0-0.1,0.1-0.1c0,0,0,0,0.1,0l5.6,8.4
			c0,0.1,0.1,0.1,0.2,0.1h2.1c0.1,0,0.3-0.1,0.3-0.3V1.2C37,1.1,36.9,0.9,36.8,0.9z"/>
		<path class="st2" d="M47.3,1.1c0-0.1-0.1-0.2-0.2-0.2h-2.8c-0.1,0-0.2,0.1-0.2,0.2l-4.5,12.2c0,0.1,0,0.2,0,0.2
			c0,0.1,0.1,0.1,0.2,0.1h2.3c0.1,0,0.2-0.1,0.3-0.2l0.9-2.7c0,0,0,0,0.1,0h4.5c0,0,0.1,0,0.1,0l0.9,2.7c0,0.1,0.1,0.2,0.3,0.2h2.5
			c0.1,0,0.2,0,0.2-0.1s0.1-0.2,0-0.2L47.3,1.1z M45.5,3.7C45.5,3.6,45.6,3.6,45.5,3.7l0.1-0.3l0,0L45.5,3.7c0.1,0,0.1,0,0.1,0
			l1.6,4.9c0,0,0,0,0,0.1c0,0,0,0-0.1,0H44c0,0,0,0-0.1,0c0,0,0,0,0-0.1L45.5,3.7z"/>
		<path class="st2" d="M63.5,9.8c-0.1-0.1-0.3-0.1-0.4,0c-0.1,0.1-0.2,0.3-0.4,0.4c-0.2,0.2-0.4,0.4-0.7,0.6
			c-0.3,0.2-0.6,0.3-0.9,0.4c-0.3,0.1-0.8,0.1-1.2,0.1c-0.6,0-1.1-0.1-1.5-0.3s-0.9-0.5-1.2-0.9c-0.3-0.4-0.6-0.8-0.8-1.3
			c-0.2-0.5-0.3-1-0.3-1.6c0-0.6,0.1-1.1,0.3-1.6c0.2-0.5,0.4-0.9,0.8-1.3c0.3-0.4,0.7-0.7,1.2-0.9c0.5-0.2,1-0.3,1.6-0.3
			c0.7,0,1.4,0.2,1.9,0.5c0.4,0.3,0.8,0.6,1.2,1c0,0.1,0.1,0.1,0.2,0.1c0.1,0,0.1,0,0.2-0.1l1.5-1.5C65,3.2,65,3,64.9,2.9
			c-0.6-0.7-1.2-1.2-2-1.6C62,0.8,61,0.6,59.8,0.6c-1,0-1.9,0.2-2.7,0.5C56.3,1.5,55.6,2,55,2.6c-0.6,0.6-1,1.3-1.3,2.1
			c-0.3,0.8-0.5,1.7-0.5,2.7c0,1,0.2,1.9,0.5,2.7c0.3,0.8,0.8,1.5,1.3,2.1c0.6,0.6,1.3,1.1,2.1,1.4c0.8,0.3,1.7,0.5,2.7,0.5
			c0.6,0,1.2-0.1,1.7-0.2c0.5-0.1,1-0.3,1.5-0.6c0.5-0.2,0.9-0.5,1.3-0.9c0.3-0.2,0.6-0.5,0.8-0.8c0.1-0.1,0.1-0.3,0-0.4L63.5,9.8z"
			/>
		<path class="st2" d="M76.5,11.3h-6c0,0-0.1,0-0.1-0.1V8.4c0,0,0-0.1,0.1-0.1h4.2c0.1,0,0.3-0.1,0.3-0.3V6.3C75,6.1,74.9,6,74.7,6
			h-4.2c0,0-0.1,0-0.1-0.1V3.4c0,0,0-0.1,0.1-0.1H76c0.1,0,0.3-0.1,0.3-0.3V1.2c0-0.1-0.1-0.3-0.3-0.3h-8.1c-0.1,0-0.3,0.1-0.3,0.3
			v12.2c0,0.1,0.1,0.3,0.3,0.3h8.5c0.1,0,0.3-0.1,0.3-0.3v-1.9C76.7,11.4,76.6,11.3,76.5,11.3z"/>
	</g>
</g>
</svg>
