<?xml version="1.0" encoding="utf-8"?>
<!-- Generator: Adobe Illustrator 25.2.3, SVG Export Plug-In . SVG Version: 6.00 Build 0)  -->
<svg version="1.1" id="Capa_1" xmlns="http://www.w3.org/2000/svg" xmlns:xlink="http://www.w3.org/1999/xlink" x="0px" y="0px"
	 viewBox="0 0 120.2 14.5" style="enable-background:new 0 0 120.2 14.5;" xml:space="preserve">
<style type="text/css">
	.st0{fill:#F08032;}
	.st1{fill:#FFFFFF;}
</style>
<g>
	<g>
		<path class="st0" d="M22.6,11.4h-8.9c-0.2,0-0.4,0.2-0.4,0.4v1.8c0,0.2,0.2,0.4,0.4,0.4h8.9c0.2,0,0.4-0.2,0.4-0.4v-1.8
			C23.1,11.6,22.9,11.4,22.6,11.4z"/>
		<path class="st0" d="M22.6,6.1h-8.9c-0.2,0-0.4,0.2-0.4,0.4v1.8c0,0.2,0.2,0.4,0.4,0.4h8.9c0.2,0,0.4-0.2,0.4-0.4V6.5
			C23.1,6.3,22.9,6.1,22.6,6.1z"/>
		<path class="st0" d="M22.6,0.7h-8.9c-0.2,0-0.4,0.2-0.4,0.4v1.8c0,0.2,0.2,0.4,0.4,0.4h8.9c0.2,0,0.4-0.2,0.4-0.4V1.2
			C23.1,0.9,22.9,0.7,22.6,0.7z"/>
		<path class="st0" d="M10.8,5c0-2.6-1.9-4.3-4.6-4.3l-4.9,0c-0.2,0-0.4,0.2-0.4,0.4v1.8c0,0.2,0.2,0.4,0.4,0.4l5.1,0
			c1.1,0,1.7,0.5,1.7,1.4c0,0.9-0.6,1.3-1.7,1.3l-5.1,0c-0.2,0-0.4,0.2-0.4,0.4v7.2c0,0.2,0.2,0.4,0.4,0.4h1.8
			c0.2,0,0.4-0.2,0.4-0.4V8.8l1.7,0l2.7,5.1C8,14,8.2,14.1,8.3,14.1h2c0.2,0,0.3-0.1,0.4-0.2c0.1-0.1,0.1-0.3,0-0.4L8.1,8.5
			C10,8,10.8,6.8,10.8,5z"/>
	</g>
	<g>
		<g>
			<path class="st1" d="M34.4,11.7c-0.4,0.1-0.8,0.2-1.3,0.2c-0.6,0-1.2-0.1-1.7-0.3c-0.5-0.2-0.9-0.5-1.3-0.9
				c-0.3-0.4-0.6-0.9-0.8-1.4c-0.2-0.5-0.3-1.1-0.3-1.7c0-0.6,0.1-1.2,0.3-1.7c0.2-0.5,0.5-1,0.8-1.4c0.4-0.4,0.8-0.7,1.3-1
				c0.5-0.2,1.1-0.3,1.7-0.3c0.8,0,1.5,0.2,2.1,0.5c0.5,0.3,0.9,0.7,1.2,1.1L38,3.3c-0.5-0.7-1.2-1.2-1.9-1.6
				c-0.8-0.4-1.9-0.6-3-0.6c-0.9,0-1.8,0.2-2.6,0.5c-0.8,0.3-1.4,0.8-2,1.4s-1,1.3-1.3,2.1c-0.3,0.8-0.5,1.6-0.5,2.6
				c0,0.9,0.2,1.8,0.5,2.6c0.3,0.8,0.7,1.4,1.3,2c0.6,0.6,1.2,1,2,1.3c0.8,0.3,1.6,0.5,2.6,0.5c0.6,0,1.1-0.1,1.6-0.2
				c0.5-0.1,1-0.3,1.5-0.6c0.4-0.2,0.9-0.5,1.2-0.8c0.3-0.2,0.5-0.5,0.8-0.8l-1.5-1.4c-0.1,0.1-0.3,0.3-0.4,0.4
				c-0.2,0.2-0.5,0.4-0.8,0.6C35.2,11.5,34.8,11.6,34.4,11.7z"/>
			<path class="st1" d="M33.1,14.3c-1,0-1.9-0.2-2.7-0.5c-0.8-0.3-1.5-0.8-2.1-1.4c-0.6-0.6-1-1.3-1.4-2.1c-0.3-0.8-0.5-1.7-0.5-2.7
				c0-0.9,0.2-1.8,0.5-2.7c0.3-0.8,0.8-1.6,1.4-2.2s1.3-1.1,2.1-1.4c0.8-0.4,1.7-0.5,2.7-0.5c1.2,0,2.2,0.2,3.1,0.7
				c0.8,0.4,1.5,0.9,2,1.7c0.1,0.1,0.1,0.3,0,0.4L36.7,5c-0.1,0.1-0.2,0.1-0.2,0.1c-0.1,0-0.2,0-0.2-0.1c-0.3-0.4-0.7-0.8-1.2-1
				c-0.5-0.3-1.2-0.5-1.9-0.5c-0.6,0-1.1,0.1-1.6,0.3c-0.5,0.2-0.9,0.5-1.2,0.9c-0.3,0.4-0.6,0.8-0.7,1.3c-0.2,0.5-0.3,1-0.3,1.6
				c0,0.6,0.1,1.1,0.3,1.6c0.2,0.5,0.4,0.9,0.7,1.3c0.3,0.4,0.7,0.6,1.2,0.9c0.4,0.2,1,0.3,1.5,0.3c0.5,0,0.9,0,1.2-0.1
				c0.3-0.1,0.6-0.2,0.9-0.4c0.3-0.2,0.5-0.3,0.7-0.6c0.1-0.1,0.3-0.3,0.4-0.4c0.1-0.1,0.3-0.1,0.5,0l1.5,1.4c0.1,0.1,0.1,0.3,0,0.5
				c-0.2,0.3-0.5,0.6-0.8,0.8c-0.4,0.3-0.8,0.6-1.3,0.9c-0.5,0.2-1,0.4-1.5,0.6C34.2,14.2,33.6,14.3,33.1,14.3z M33.1,1.4
				c-0.9,0-1.7,0.2-2.5,0.5c-0.7,0.3-1.4,0.8-1.9,1.3c-0.5,0.5-0.9,1.2-1.2,1.9c-0.3,0.8-0.4,1.6-0.4,2.4c0,0.9,0.1,1.7,0.4,2.5
				c0.3,0.7,0.7,1.4,1.2,1.9c0.5,0.5,1.2,1,1.9,1.3c0.7,0.3,1.5,0.5,2.4,0.5c0.5,0,1.1-0.1,1.5-0.2c0.5-0.1,1-0.3,1.4-0.5
				c0.4-0.2,0.8-0.5,1.2-0.8c0.2-0.2,0.4-0.3,0.5-0.5l-1-0.9c-0.1,0.1-0.1,0.1-0.2,0.2c-0.2,0.3-0.5,0.5-0.8,0.7
				c-0.3,0.2-0.7,0.3-1.1,0.5c-0.4,0.1-0.9,0.2-1.4,0.2c-0.7,0-1.3-0.1-1.8-0.4c-0.5-0.2-1-0.6-1.4-1c-0.4-0.4-0.7-0.9-0.9-1.5
				c-0.2-0.6-0.3-1.2-0.3-1.8c0-0.6,0.1-1.2,0.3-1.8c0.2-0.6,0.5-1.1,0.9-1.5c0.4-0.4,0.9-0.8,1.4-1s1.2-0.4,1.8-0.4
				c0.9,0,1.6,0.2,2.2,0.6c0.4,0.2,0.8,0.5,1.1,0.9l1-1c-0.5-0.5-1-0.9-1.6-1.2C35.1,1.6,34.2,1.4,33.1,1.4z"/>
		</g>
		<g>
			<path class="st1" d="M51.3,2.9c-0.6-0.6-1.2-1-2-1.4c-0.8-0.3-1.6-0.5-2.5-0.5S45,1.2,44.2,1.6c-0.8,0.3-1.5,0.8-2,1.4
				c-0.6,0.6-1,1.3-1.3,2s-0.5,1.6-0.5,2.6c0,0.9,0.2,1.8,0.5,2.5c0.3,0.8,0.8,1.5,1.3,2c0.6,0.6,1.2,1,2,1.4
				c0.8,0.3,1.6,0.5,2.5,0.5s1.8-0.2,2.5-0.5c0.8-0.3,1.5-0.8,2-1.4c0.6-0.6,1-1.3,1.3-2c0.3-0.8,0.5-1.6,0.5-2.5
				c0-0.9-0.2-1.8-0.5-2.6C52.3,4.2,51.9,3.5,51.3,2.9z M50.5,9.2c-0.2,0.5-0.4,1-0.8,1.4c-0.3,0.4-0.8,0.7-1.3,1
				c-0.5,0.2-1.1,0.4-1.7,0.4c-0.6,0-1.2-0.1-1.7-0.4c-0.5-0.2-0.9-0.6-1.3-1c-0.3-0.4-0.6-0.9-0.8-1.4c-0.2-0.5-0.3-1.1-0.3-1.7
				s0.1-1.2,0.3-1.7c0.2-0.5,0.4-1,0.8-1.4c0.3-0.4,0.8-0.7,1.3-1c0.5-0.2,1.1-0.3,1.7-0.3s1.2,0.1,1.7,0.3c0.5,0.2,0.9,0.6,1.3,1
				c0.3,0.4,0.6,0.9,0.8,1.4c0.2,0.5,0.3,1.1,0.3,1.7S50.7,8.6,50.5,9.2z"/>
			<path class="st1" d="M46.8,14.3c-0.9,0-1.8-0.2-2.7-0.5c-0.8-0.3-1.5-0.8-2.1-1.4c-0.6-0.6-1.1-1.3-1.4-2.2
				c-0.3-0.8-0.5-1.7-0.5-2.7c0-1,0.2-1.9,0.5-2.7s0.8-1.5,1.4-2.1s1.3-1.1,2.1-1.4c0.8-0.3,1.7-0.5,2.7-0.5c0.9,0,1.8,0.2,2.7,0.5
				c0.8,0.3,1.5,0.8,2.1,1.4S52.6,4,53,4.8s0.5,1.7,0.5,2.7c0,0.9-0.2,1.8-0.5,2.7c-0.3,0.8-0.8,1.6-1.4,2.2
				c-0.6,0.6-1.3,1.1-2.1,1.4C48.6,14.1,47.7,14.3,46.8,14.3z M46.8,1.4c-0.9,0-1.7,0.2-2.4,0.5c-0.7,0.3-1.4,0.7-1.9,1.3
				s-1,1.2-1.3,1.9c-0.3,0.7-0.5,1.6-0.5,2.4c0,0.9,0.2,1.7,0.5,2.4c0.3,0.7,0.7,1.4,1.3,1.9c0.5,0.5,1.2,1,1.9,1.3
				c0.7,0.3,1.5,0.5,2.4,0.5c0.9,0,1.7-0.2,2.4-0.5c0.7-0.3,1.4-0.7,1.9-1.3c0.5-0.5,1-1.2,1.3-1.9s0.5-1.6,0.5-2.4
				c0-0.9-0.2-1.7-0.5-2.4c-0.3-0.7-0.7-1.4-1.3-1.9s-1.2-1-1.9-1.3C48.4,1.6,47.6,1.4,46.8,1.4z M46.8,12.2c-0.7,0-1.3-0.1-1.8-0.4
				c-0.5-0.3-1-0.6-1.4-1.1c-0.4-0.4-0.7-0.9-0.8-1.5c-0.2-0.6-0.3-1.2-0.3-1.8c0-0.6,0.1-1.2,0.3-1.8c0.2-0.6,0.5-1.1,0.8-1.5
				c0.4-0.4,0.8-0.8,1.4-1c0.5-0.3,1.2-0.4,1.8-0.4s1.3,0.1,1.8,0.4c0.5,0.3,1,0.6,1.4,1c0.4,0.4,0.7,0.9,0.8,1.5
				c0.2,0.6,0.3,1.2,0.3,1.8S51,8.7,50.8,9.3c-0.2,0.6-0.5,1.1-0.8,1.5c-0.4,0.4-0.8,0.8-1.4,1.1C48,12.1,47.4,12.2,46.8,12.2z
				 M46.8,3.5c-0.6,0-1.1,0.1-1.5,0.3c-0.5,0.2-0.8,0.5-1.2,0.9c-0.3,0.4-0.6,0.8-0.7,1.3c-0.2,0.5-0.3,1-0.3,1.6
				c0,0.6,0.1,1.1,0.3,1.6c0.2,0.5,0.4,0.9,0.7,1.3c0.3,0.4,0.7,0.7,1.2,0.9c0.5,0.2,1,0.3,1.5,0.3c0.6,0,1.1-0.1,1.5-0.3
				c0.4-0.2,0.8-0.5,1.2-0.9c0.3-0.4,0.6-0.8,0.7-1.3c0.2-0.5,0.3-1,0.3-1.6s-0.1-1.1-0.3-1.6C50,5.4,49.8,5,49.4,4.6
				c-0.3-0.4-0.7-0.7-1.1-0.9C47.8,3.6,47.3,3.5,46.8,3.5z"/>
		</g>
		<g>
			<polygon class="st1" points="56.6,1.4 56.6,13.6 58.9,13.6 58.9,4.4 65.1,13.6 67.2,13.6 67.2,1.4 65,1.4 65,10.5 58.9,1.4 			
				"/>
			<path class="st1" d="M67.2,14h-2.1c-0.1,0-0.2-0.1-0.3-0.1l-5.6-8.4v8.2c0,0.2-0.1,0.3-0.3,0.3h-2.2c-0.2,0-0.3-0.1-0.3-0.3V1.4
				c0-0.2,0.1-0.3,0.3-0.3h2.3c0.1,0,0.2,0.1,0.3,0.1l5.5,8.2v-8c0-0.2,0.1-0.3,0.3-0.3h2.2c0.2,0,0.3,0.1,0.3,0.3v12.2
				C67.5,13.8,67.4,14,67.2,14z M65.3,13.3h1.6V1.8h-1.6v8.8c0,0.1-0.1,0.3-0.2,0.3s-0.3,0-0.4-0.1l-6-9H57v11.6h1.6V4.4
				c0-0.1,0.1-0.3,0.2-0.3c0.1,0,0.3,0,0.4,0.1L65.3,13.3z"/>
		</g>
		<g>
			<polyline class="st1" points="73.5,6.5 73.5,3.3 79.4,3.3 79.4,1.4 71.2,1.4 71.2,13.6 79.8,13.6 79.8,11.7 73.5,11.7 73.5,8.3 
				78.1,8.3 78.1,6.5 73.5,6.5 			"/>
			<path class="st1" d="M79.8,14h-8.6c-0.2,0-0.3-0.1-0.3-0.3V1.4c0-0.2,0.1-0.3,0.3-0.3h8.1c0.2,0,0.3,0.1,0.3,0.3v1.9
				c0,0.2-0.1,0.3-0.3,0.3h-5.6v2.5h4.2c0.2,0,0.3,0.1,0.3,0.3v1.8c0,0.2-0.1,0.3-0.3,0.3h-4.2v2.8h6c0.2,0,0.3,0.1,0.3,0.3v1.9
				C80.1,13.8,80,14,79.8,14z M71.6,13.3h7.9v-1.2h-6c-0.2,0-0.3-0.1-0.3-0.3V8.3c0-0.2,0.1-0.3,0.3-0.3h4.2V6.8h-4.2
				c-0.2,0-0.3-0.1-0.3-0.3V3.3c0-0.2,0.1-0.3,0.3-0.3H79V1.8h-7.5V13.3z"/>
		</g>
		<g>
			<path class="st1" d="M89.8,11.7c-0.4,0.1-0.8,0.2-1.3,0.2c-0.6,0-1.2-0.1-1.7-0.3c-0.5-0.2-0.9-0.5-1.3-0.9
				c-0.3-0.4-0.6-0.9-0.8-1.4c-0.2-0.5-0.3-1.1-0.3-1.7c0-0.6,0.1-1.2,0.3-1.7c0.2-0.5,0.5-1,0.8-1.4c0.4-0.4,0.8-0.7,1.3-1
				c0.5-0.2,1.1-0.3,1.7-0.3c0.8,0,1.5,0.2,2.1,0.5c0.5,0.3,0.9,0.7,1.2,1.1l1.5-1.5c-0.5-0.7-1.2-1.2-1.9-1.6
				c-0.8-0.4-1.9-0.6-3-0.6c-0.9,0-1.8,0.2-2.6,0.5c-0.8,0.3-1.4,0.8-2,1.4s-1,1.3-1.3,2.1c-0.3,0.8-0.5,1.6-0.5,2.6
				c0,0.9,0.2,1.8,0.5,2.6c0.3,0.8,0.7,1.4,1.3,2c0.6,0.6,1.2,1,2,1.3c0.8,0.3,1.6,0.5,2.6,0.5c0.6,0,1.1-0.1,1.6-0.2
				c0.5-0.1,1-0.3,1.5-0.6c0.4-0.2,0.9-0.5,1.2-0.8c0.3-0.2,0.5-0.5,0.8-0.8l-1.5-1.4c-0.1,0.1-0.3,0.3-0.4,0.4
				c-0.2,0.2-0.5,0.4-0.8,0.6C90.5,11.5,90.2,11.6,89.8,11.7z"/>
			<path class="st1" d="M88.4,14.3c-1,0-1.9-0.2-2.7-0.5c-0.8-0.3-1.5-0.8-2.1-1.4c-0.6-0.6-1-1.3-1.4-2.1c-0.3-0.8-0.5-1.7-0.5-2.7
				c0-0.9,0.2-1.8,0.5-2.7c0.3-0.8,0.8-1.6,1.4-2.2s1.3-1.1,2.1-1.4c0.8-0.4,1.7-0.5,2.7-0.5c1.2,0,2.2,0.2,3.1,0.7
				c0.8,0.4,1.5,0.9,2,1.7c0.1,0.1,0.1,0.3,0,0.4L92.1,5C92,5,91.9,5.1,91.8,5.1c-0.1,0-0.2,0-0.2-0.1c-0.3-0.4-0.7-0.8-1.2-1
				c-0.5-0.3-1.2-0.5-1.9-0.5c-0.6,0-1.1,0.1-1.6,0.3c-0.5,0.2-0.9,0.5-1.2,0.9c-0.3,0.4-0.6,0.8-0.7,1.3c-0.2,0.5-0.3,1-0.3,1.6
				c0,0.6,0.1,1.1,0.3,1.6c0.2,0.5,0.4,0.9,0.7,1.3c0.3,0.4,0.7,0.6,1.2,0.9s1,0.3,1.5,0.3c0.5,0,0.9,0,1.2-0.1
				c0.3-0.1,0.6-0.2,0.9-0.4c0.3-0.2,0.5-0.3,0.7-0.6c0.1-0.1,0.3-0.3,0.4-0.4c0.1-0.1,0.3-0.1,0.5,0l1.5,1.4c0.1,0.1,0.1,0.3,0,0.5
				c-0.2,0.3-0.5,0.6-0.8,0.8c-0.4,0.3-0.8,0.6-1.3,0.9c-0.5,0.2-1,0.4-1.5,0.6C89.6,14.2,89,14.3,88.4,14.3z M88.4,1.4
				c-0.9,0-1.7,0.2-2.5,0.5c-0.7,0.3-1.4,0.8-1.9,1.3c-0.5,0.5-0.9,1.2-1.2,1.9c-0.3,0.8-0.4,1.6-0.4,2.4c0,0.9,0.1,1.7,0.4,2.5
				c0.3,0.7,0.7,1.4,1.2,1.9c0.5,0.5,1.2,1,1.9,1.3c0.7,0.3,1.5,0.5,2.4,0.5c0.5,0,1.1-0.1,1.5-0.2c0.5-0.1,1-0.3,1.4-0.5
				c0.4-0.2,0.8-0.5,1.2-0.8c0.2-0.2,0.4-0.3,0.5-0.5l-1-0.9c-0.1,0.1-0.1,0.1-0.2,0.2c-0.2,0.3-0.5,0.5-0.8,0.7
				c-0.3,0.2-0.7,0.3-1.1,0.5c-0.4,0.1-0.9,0.2-1.4,0.2c-0.7,0-1.3-0.1-1.8-0.4c-0.5-0.2-1-0.6-1.4-1c-0.4-0.4-0.7-0.9-0.9-1.5
				c-0.2-0.6-0.3-1.2-0.3-1.8c0-0.6,0.1-1.2,0.3-1.8c0.2-0.6,0.5-1.1,0.9-1.5c0.4-0.4,0.9-0.8,1.4-1s1.2-0.4,1.8-0.4
				c0.9,0,1.6,0.2,2.2,0.6c0.4,0.2,0.8,0.5,1.1,0.9l1-1c-0.5-0.5-1-0.9-1.6-1.2C90.5,1.6,89.5,1.4,88.4,1.4z"/>
		</g>
		<g>
			<polygon class="st1" points="100.1,13.6 102.4,13.6 102.4,3.3 106.5,3.3 106.5,1.4 95.9,1.4 95.9,3.3 100.1,3.3 			"/>
			<path class="st1" d="M102.4,14h-2.3c-0.2,0-0.3-0.1-0.3-0.3v-10h-3.8c-0.2,0-0.3-0.1-0.3-0.3V1.4c0-0.2,0.1-0.3,0.3-0.3h10.6
				c0.2,0,0.3,0.1,0.3,0.3v1.9c0,0.2-0.1,0.3-0.3,0.3h-3.8v10C102.7,13.8,102.6,14,102.4,14z M100.4,13.3h1.6v-10
				c0-0.2,0.1-0.3,0.3-0.3h3.8V1.8h-9.9V3h3.8c0.2,0,0.3,0.1,0.3,0.3C100.4,3.3,100.4,13.3,100.4,13.3z"/>
		</g>
		<g>
			<path class="st1" d="M114,1.4h-2.8l-4.6,12.2h2.3l1-3h5l1,3h2.5L114,1.4z M110.4,9.1l2.1-6.3l2,6.3H110.4z"/>
			<path class="st1" d="M118.4,14H116c-0.1,0-0.3-0.1-0.3-0.2l-0.9-2.7h-4.5l-0.9,2.7c0,0.1-0.2,0.2-0.3,0.2h-2.3
				c-0.1,0-0.2-0.1-0.3-0.1c-0.1-0.1-0.1-0.2,0-0.3l4.6-12.2c0-0.1,0.2-0.2,0.3-0.2h2.8c0.1,0,0.3,0.1,0.3,0.2l4.5,12.2
				c0,0.1,0,0.2,0,0.3C118.6,13.9,118.5,14,118.4,14z M116.2,13.3h1.8l-4.2-11.6h-2.3l-4.3,11.6h1.6l0.9-2.7c0-0.1,0.2-0.2,0.3-0.2
				h5c0.1,0,0.3,0.1,0.3,0.2L116.2,13.3z M114.5,9.4h-4.1c-0.1,0-0.2-0.1-0.3-0.1s-0.1-0.2,0-0.3l2.1-6.3c0-0.1,0.2-0.2,0.3-0.2h0
				c0.1,0,0.3,0.1,0.3,0.2l2,6.3c0,0.1,0,0.2,0,0.3S114.6,9.4,114.5,9.4z M110.9,8.8h3.2l-1.6-4.9L110.9,8.8z"/>
		</g>
	</g>
</g>
</svg>
