<?xml version="1.0" encoding="utf-8"?>
<!-- Generator: Adobe Illustrator 25.2.3, SVG Export Plug-In . SVG Version: 6.00 Build 0)  -->
<svg version="1.1" id="Capa_1" xmlns="http://www.w3.org/2000/svg" xmlns:xlink="http://www.w3.org/1999/xlink" x="0px" y="0px"
	 viewBox="0 0 141.7 14.5" style="enable-background:new 0 0 141.7 14.5;" xml:space="preserve">
<style type="text/css">
	.st0{fill:#EE8031;}
	.st1{fill:#FFFFFF;}
</style>
<g>
	<g>
		<path class="st0" d="M23.6,11.1h-8.9c-0.2,0-0.4,0.2-0.4,0.4v1.8c0,0.2,0.2,0.4,0.4,0.4h8.9c0.2,0,0.4-0.2,0.4-0.4v-1.8
			C24,11.3,23.8,11.1,23.6,11.1z"/>
		<path class="st0" d="M23.6,5.7h-8.9c-0.2,0-0.4,0.2-0.4,0.4V8c0,0.2,0.2,0.4,0.4,0.4h8.9C23.8,8.4,24,8.2,24,8V6.2
			C24,5.9,23.8,5.7,23.6,5.7z"/>
		<path class="st0" d="M23.6,0.4h-8.9c-0.2,0-0.4,0.2-0.4,0.4v1.8c0,0.2,0.2,0.4,0.4,0.4h8.9C23.8,3,24,2.8,24,2.6V0.8
			C24,0.6,23.8,0.4,23.6,0.4z"/>
		<path class="st0" d="M11.7,4.6c0-2.6-1.9-4.3-4.6-4.3l-4.9,0C2,0.4,1.8,0.6,1.8,0.8v1.8C1.8,2.8,2,3,2.3,3l5.1,0
			c1.1,0,1.7,0.5,1.7,1.4c0,0.9-0.6,1.3-1.7,1.3l-5.1,0C2,5.7,1.8,5.9,1.8,6.2v7.1c0,0.2,0.2,0.4,0.4,0.4h1.8c0.2,0,0.4-0.2,0.4-0.4
			V8.4l1.7,0l2.7,5.1c0.1,0.1,0.2,0.2,0.4,0.2h2c0.2,0,0.3-0.1,0.4-0.2c0.1-0.1,0.1-0.3,0-0.4L9.1,8.2C10.9,7.6,11.7,6.5,11.7,4.6z"
			/>
	</g>
	<g>
		<path class="st1" d="M26.8,0.7h8.9v2.6h-6v2.5h4.6v2.5h-4.6v2.8h6.4v2.6h-9.4V0.7z"/>
		<path class="st1" d="M38.1,0.7H41l5.7,8.5V0.7h2.9v13h-2.7l-5.8-8.6v8.6h-2.9V0.7z"/>
		<path class="st1" d="M63.9,11.4c-0.3,0.4-0.6,0.7-1,1.1c-0.4,0.3-0.8,0.6-1.3,0.9c-0.5,0.2-1,0.4-1.5,0.6
			c-0.6,0.1-1.1,0.2-1.7,0.2c-1,0-1.9-0.2-2.7-0.5c-0.8-0.3-1.5-0.8-2.1-1.4c-0.6-0.6-1.1-1.3-1.4-2.2c-0.3-0.8-0.5-1.7-0.5-2.7
			c0-1,0.2-1.9,0.5-2.7c0.3-0.8,0.8-1.6,1.4-2.2s1.3-1.1,2.1-1.5c0.8-0.4,1.7-0.5,2.7-0.5c1.2,0,2.3,0.2,3.2,0.7
			c0.9,0.4,1.7,1.1,2.3,1.9l-2,1.9c-0.4-0.5-0.9-1-1.4-1.3c-0.5-0.3-1.2-0.5-1.9-0.5c-0.6,0-1.1,0.1-1.6,0.3C56.4,3.7,56,4,55.7,4.3
			c-0.3,0.4-0.6,0.8-0.8,1.3s-0.3,1-0.3,1.6c0,0.6,0.1,1.1,0.3,1.6s0.4,0.9,0.8,1.3c0.3,0.4,0.7,0.7,1.2,0.9c0.5,0.2,1,0.3,1.5,0.3
			c0.5,0,0.9,0,1.2-0.1s0.7-0.2,0.9-0.4c0.3-0.2,0.5-0.4,0.7-0.6c0.2-0.2,0.4-0.4,0.6-0.7L63.9,11.4z"/>
		<path class="st1" d="M65.3,0.7h3v7.7c0,0.4,0,0.8,0.1,1.2c0.1,0.3,0.2,0.6,0.4,0.9c0.2,0.2,0.5,0.4,0.8,0.6
			c0.3,0.1,0.7,0.2,1.2,0.2c0.5,0,0.8-0.1,1.2-0.2c0.3-0.1,0.6-0.3,0.8-0.6S73,10,73.1,9.6c0.1-0.3,0.1-0.7,0.1-1.2V0.7h3v8.1
			c0,0.8-0.1,1.5-0.4,2.2c-0.3,0.7-0.6,1.2-1.1,1.7c-0.5,0.5-1.1,0.8-1.7,1.1s-1.4,0.4-2.3,0.4c-0.8,0-1.6-0.1-2.3-0.4
			c-0.7-0.3-1.3-0.6-1.7-1.1c-0.5-0.5-0.8-1-1.1-1.7c-0.3-0.7-0.4-1.4-0.4-2.2L65.3,0.7L65.3,0.7z"/>
		<path class="st1" d="M78.7,0.7h8.9v2.6h-6v2.5h4.6v2.5h-4.6v2.8H88v2.6h-9.4V0.7z"/>
		<path class="st1" d="M90,0.7h2.8l5.7,8.5V0.7h2.9v13h-2.7l-5.8-8.6v8.6H90V0.7z"/>
		<path class="st1" d="M107.3,3.4h-4.2V0.7h11.4v2.6h-4.2v10.4h-3L107.3,3.4L107.3,3.4z"/>
		<path class="st1" d="M116.2,0.7h4.9c0.8,0,1.4,0.1,2,0.3c0.6,0.2,1.1,0.5,1.4,0.9c0.4,0.4,0.7,0.8,0.9,1.3c0.2,0.5,0.3,1,0.3,1.6
			c0,0.8-0.2,1.6-0.6,2.2c-0.4,0.6-0.9,1.1-1.6,1.5l2.9,5.2h-3.2L120.7,9H119v4.8h-2.9L116.2,0.7L116.2,0.7z M120.9,6.6
			c0.5,0,1-0.2,1.3-0.5s0.5-0.7,0.5-1.2c0-0.5-0.2-1-0.5-1.3s-0.7-0.5-1.3-0.5H119v3.5H120.9z"/>
		<path class="st1" d="M131.8,0.7h3.3l4.8,13h-3.2l-1-3H131l-1,3h-3.1L131.8,0.7z M134.9,8.5l-1.6-4.9l-1.6,4.9H134.9z"/>
	</g>
</g>
</svg>
