<?xml version="1.0" encoding="utf-8"?>
<!-- Generator: Adobe Illustrator 25.2.0, SVG Export Plug-In . SVG Version: 6.00 Build 0)  -->
<svg version="1.1" id="Capa_1" xmlns="http://www.w3.org/2000/svg" xmlns:xlink="http://www.w3.org/1999/xlink" x="0px" y="0px"
	 viewBox="0 0 512 512" style="enable-background:new 0 0 512 512;" xml:space="preserve">
<style type="text/css">
	.st0{fill:#5568A1;}
	.st1{fill:#FFFFFF;}
</style>
<circle class="st0" cx="256" cy="256" r="246.7"/>
<g>
	<g>
		<path class="st1" d="M157.2,169.1l80.7,91.6c4.6,5.2,11.2,8.2,18.1,8.2c6.9,0,13.5-3,18.1-8.2l79.3-90c0.7-0.7,1.4-1.3,2.2-1.8
			c-3.4-1.5-7.1-2.3-11-2.3H167.3c-3.7,0-7.3,0.8-10.5,2.1C156.9,168.9,157,169,157.2,169.1z"/>
		<path class="st1" d="M367.9,179.5c-0.4,0.9-0.9,1.8-1.5,2.6l-79.3,90c-7.9,8.9-19.2,14-31,14c-11.9,0-23.2-5.1-31-14l-80.7-91.6
			c-0.2-0.2-0.3-0.4-0.4-0.6c-2.5,4.1-4,8.9-4,14.1v124c0,15.1,12.3,27.4,27.4,27.4h177.4c15.1,0,27.4-12.3,27.4-27.4V194
			C372.1,188.7,370.6,183.7,367.9,179.5z"/>
	</g>
</g>
</svg>
