<?xml version="1.0" encoding="utf-8"?>
<!-- Generator: Adobe Illustrator 25.2.0, SVG Export Plug-In . SVG Version: 6.00 Build 0)  -->
<svg version="1.1" id="Capa_1" xmlns="http://www.w3.org/2000/svg" xmlns:xlink="http://www.w3.org/1999/xlink" x="0px" y="0px"
	 viewBox="0 0 512 512" style="enable-background:new 0 0 512 512;" xml:space="preserve">
<style type="text/css">
	.st0{fill:#5568A1;}
	.st1{fill:#FFFFFF;}
</style>
<g>
	<circle class="st0" cx="256" cy="256" r="246.5"/>
	<path class="st1" d="M351,354.5c-2.8,4.7-7.8,7.4-12.9,7.4c-2.6,0-5.2-0.7-7.5-2c-39.2-22.9-84.6-26.6-115.7-25.7
		c-34.5,1-59.8,7.9-60,7.9c-7.9,2.2-16.2-2.5-18.3-10.5c-2.2-7.9,2.5-16.2,10.4-18.3c1.1-0.3,28.3-7.7,66.2-9
		c22.3-0.7,43.7,0.8,63.8,4.6c25.4,4.8,48.5,13.3,68.7,25.1C352.8,338.3,355.2,347.4,351,354.5z"/>
	<path class="st1" d="M378.8,296.9c-3.3,5.6-9.2,8.8-15.3,8.8c-3,0-6.1-0.8-8.9-2.4c-46.5-27.2-100.2-31.5-137-30.4
		c-40.8,1.2-70.8,9.3-71.1,9.4c-9.4,2.6-19.1-3-21.7-12.4c-2.6-9.4,2.9-19.1,12.3-21.7c1.4-0.4,33.6-9.1,78.4-10.6
		c26.4-0.9,51.8,1,75.5,5.5c30,5.7,57.4,15.7,81.4,29.7C380.9,277.6,383.7,288.4,378.8,296.9z"/>
	<path class="st1" d="M395.8,244.5c-3.7,0-7.5-1-10.9-3c-110.5-64.6-253.8-26.2-255.2-25.8c-11.6,3.2-23.5-3.6-26.7-15.2
		c-3.2-11.6,3.6-23.5,15.2-26.7c1.7-0.5,41.2-11.2,96.2-13c32.4-1.1,63.5,1.2,92.6,6.7c36.8,7,70.4,19.3,99.9,36.5
		c10.3,6,13.8,19.3,7.8,29.7C410.6,240.6,403.3,244.5,395.8,244.5z"/>
</g>
</svg>
