<?xml version="1.0" encoding="utf-8"?>
<!-- Generator: Adobe Illustrator 25.2.0, SVG Export Plug-In . SVG Version: 6.00 Build 0)  -->
<svg version="1.1" id="Capa_1" xmlns="http://www.w3.org/2000/svg" xmlns:xlink="http://www.w3.org/1999/xlink" x="0px" y="0px"
	 viewBox="0 0 512 512" style="enable-background:new 0 0 512 512;" xml:space="preserve">
<style type="text/css">
	.st0{fill:#5568A1;}
	.st1{fill:#FFFFFF;}
	.st2{fill-rule:evenodd;clip-rule:evenodd;fill:#FFFFFF;}
</style>
<circle class="st0" cx="255.7" cy="255.9" r="246.7"/>
<g>
	<path class="st1" d="M121.9,393.1l20.1-75c-11.4-20.5-17.4-43.5-17.4-66.9c0-76.3,62.1-138.4,138.4-138.4s138.4,62.1,138.4,138.4
		S339.3,389.6,263,389.6c-22.9,0-45.5-5.8-65.8-16.8L121.9,393.1z M201,344.8l4.7,2.8c17.4,10.4,37.2,15.9,57.3,15.9
		c61.9,0,112.2-50.4,112.2-112.2c0-61.9-50.4-112.2-112.2-112.2c-61.9,0-112.2,50.3-112.2,112.2c0,20.4,5.7,40.6,16.4,58.2l2.9,4.8
		l-11.2,41.8L201,344.8z"/>
	<path class="st2" d="M314.5,270.5c-5.7-3.4-13.1-7.2-19.8-4.5c-5.1,2.1-8.4,10.2-11.8,14.3c-1.7,2.1-3.8,2.4-6.4,1.4
		c-19.3-7.7-34.1-20.6-44.8-38.4c-1.8-2.8-1.5-4.9,0.7-7.5c3.2-3.8,7.3-8.1,8.1-13.2c0.9-5.1-1.5-11.1-3.6-15.6
		c-2.7-5.8-5.7-14.1-11.5-17.4c-5.4-3-12.4-1.3-17.2,2.6c-8.2,6.7-12.2,17.2-12.1,27.6c0,3,0.4,5.9,1.1,8.8
		c1.7,6.9,4.8,13.3,8.4,19.4c2.7,4.6,5.6,9.1,8.8,13.4c10.3,14,23.2,26.2,38.1,35.4c7.4,4.6,15.5,8.6,23.8,11.3
		c9.3,3.1,17.6,6.3,27.6,4.4c10.5-2,20.9-8.5,25.1-18.7c1.2-3,1.9-6.3,1.2-9.5C328.7,277.6,319.8,273.7,314.5,270.5z"/>
</g>
</svg>
