<?xml version="1.0" encoding="utf-8"?>
<!-- Generator: Adobe Illustrator 25.2.3, SVG Export Plug-In . SVG Version: 6.00 Build 0)  -->
<svg version="1.1" id="Capa_1" xmlns="http://www.w3.org/2000/svg" xmlns:xlink="http://www.w3.org/1999/xlink" x="0px" y="0px"
	 viewBox="0 0 512 512" style="enable-background:new 0 0 512 512;" xml:space="preserve">
<style type="text/css">
	.st0{fill:#EE8031;}
	.st1{fill:#FFFFFF;}
</style>
<g>
	<circle class="st0" cx="256" cy="256" r="247.9"/>
	<path class="st1" d="M388.7,220.6c0-32.9-26.7-59.5-59.5-59.5H177c-32.9,0-59.5,26.7-59.5,59.5v70.8c0,32.9,26.7,59.5,59.5,59.5
		h152.2c32.9,0,59.5-26.7,59.5-59.5V220.6z M299.2,261.3l-68.3,33.8c-2.7,1.4-11.8-0.5-11.8-3.5v-69.3c0-3.1,9.2-5,11.8-3.5
		l65.3,35.6C299.1,255.8,302,259.8,299.2,261.3z"/>
</g>
</svg>
